<mxfile host="app.diagrams.net" agent="Mozilla/5.0 (Windows NT 10.0; Win64; x64) AppleWebKit/537.36 (KHTML, like Gecko) Chrome/137.0.0.0 Safari/537.36 Edg/137.0.0.0" version="27.1.4">
  <diagram name="Page-1" id="3t-OKMpGWGlX9CUcEWw3">
    <mxGraphModel dx="1418" dy="820" grid="1" gridSize="10" guides="1" tooltips="1" connect="1" arrows="1" fold="1" page="1" pageScale="1" pageWidth="3300" pageHeight="2339" math="0" shadow="0">
      <root>
        <mxCell id="0" />
        <mxCell id="1" parent="0" />
        <mxCell id="4ZfbymlsNvGFxBUoGwHC-1" value="" style="rounded=1;arcSize=10;dashed=1;strokeColor=#F59D56;fillColor=none;gradientColor=none;dashPattern=8 4;strokeWidth=2;" vertex="1" parent="1">
          <mxGeometry x="459.5" y="210" width="850.5" height="320" as="geometry" />
        </mxCell>
        <mxCell id="4ZfbymlsNvGFxBUoGwHC-25" value="" style="rounded=1;arcSize=10;dashed=1;strokeColor=#F59D56;fillColor=none;gradientColor=none;dashPattern=8 4;strokeWidth=2;" vertex="1" parent="1">
          <mxGeometry x="478" y="210" width="852" height="340" as="geometry" />
        </mxCell>
        <mxCell id="4ZfbymlsNvGFxBUoGwHC-47" value="" style="rounded=1;whiteSpace=wrap;html=1;dashed=1;dashPattern=12 12;strokeColor=#82b366;fillColor=#d5e8d4;" vertex="1" parent="1">
          <mxGeometry x="570" y="340" width="190" height="135" as="geometry" />
        </mxCell>
        <mxCell id="4ZfbymlsNvGFxBUoGwHC-9" value="" style="rounded=1;whiteSpace=wrap;html=1;dashed=1;dashPattern=12 12;strokeColor=#82b366;fillColor=#d5e8d4;" vertex="1" parent="1">
          <mxGeometry x="878" y="340" width="226.25" height="135" as="geometry" />
        </mxCell>
        <mxCell id="4ZfbymlsNvGFxBUoGwHC-11" value="" style="outlineConnect=0;dashed=0;verticalLabelPosition=bottom;verticalAlign=top;align=center;html=1;shape=mxgraph.aws3.ec2;fillColor=#F58534;gradientColor=none;" vertex="1" parent="1">
          <mxGeometry x="1026" y="387.5" width="30" height="40" as="geometry" />
        </mxCell>
        <mxCell id="4ZfbymlsNvGFxBUoGwHC-59" style="edgeStyle=orthogonalEdgeStyle;rounded=0;orthogonalLoop=1;jettySize=auto;html=1;entryX=0;entryY=0.5;entryDx=0;entryDy=0;" edge="1" parent="1" source="4ZfbymlsNvGFxBUoGwHC-12" target="4ZfbymlsNvGFxBUoGwHC-9">
          <mxGeometry relative="1" as="geometry" />
        </mxCell>
        <mxCell id="4ZfbymlsNvGFxBUoGwHC-13" value="" style="sketch=0;outlineConnect=0;fontColor=#232F3E;gradientColor=none;fillColor=#8C4FFF;strokeColor=none;dashed=0;verticalLabelPosition=bottom;verticalAlign=top;align=center;html=1;fontSize=12;fontStyle=0;aspect=fixed;pointerEvents=1;shape=mxgraph.aws4.nat_gateway;" vertex="1" parent="1">
          <mxGeometry x="720" y="422" width="40" height="40" as="geometry" />
        </mxCell>
        <mxCell id="4ZfbymlsNvGFxBUoGwHC-20" value="" style="outlineConnect=0;dashed=0;verticalLabelPosition=bottom;verticalAlign=top;align=center;html=1;shape=mxgraph.aws3.ec2;fillColor=#F58534;gradientColor=none;" vertex="1" parent="1">
          <mxGeometry x="947.75" y="387.5" width="30" height="40" as="geometry" />
        </mxCell>
        <mxCell id="4ZfbymlsNvGFxBUoGwHC-23" value="" style="sketch=0;outlineConnect=0;fontColor=#232F3E;gradientColor=none;fillColor=#ED7100;strokeColor=none;dashed=0;verticalLabelPosition=bottom;verticalAlign=top;align=center;html=1;fontSize=12;fontStyle=0;aspect=fixed;pointerEvents=1;shape=mxgraph.aws4.auto_scaling2;" vertex="1" parent="1">
          <mxGeometry x="987.75" y="390" width="35" height="35" as="geometry" />
        </mxCell>
        <mxCell id="4ZfbymlsNvGFxBUoGwHC-27" value="2 Availability zone" style="sketch=0;outlineConnect=0;gradientColor=none;html=1;whiteSpace=wrap;fontSize=12;fontStyle=0;shape=mxgraph.aws4.group;grIcon=mxgraph.aws4.group_availability_zone;strokeColor=#545B64;fillColor=none;verticalAlign=top;align=left;spacingLeft=30;fontColor=#545B64;dashed=1;" vertex="1" parent="1">
          <mxGeometry x="475" y="180" width="130" height="30" as="geometry" />
        </mxCell>
        <mxCell id="4ZfbymlsNvGFxBUoGwHC-57" style="edgeStyle=orthogonalEdgeStyle;rounded=0;orthogonalLoop=1;jettySize=auto;html=1;" edge="1" parent="1" source="4ZfbymlsNvGFxBUoGwHC-28" target="4ZfbymlsNvGFxBUoGwHC-56">
          <mxGeometry relative="1" as="geometry" />
        </mxCell>
        <mxCell id="4ZfbymlsNvGFxBUoGwHC-28" value="" style="sketch=0;outlineConnect=0;fontColor=#232F3E;gradientColor=none;fillColor=#232F3D;strokeColor=none;dashed=0;verticalLabelPosition=bottom;verticalAlign=top;align=center;html=1;fontSize=12;fontStyle=0;aspect=fixed;pointerEvents=1;shape=mxgraph.aws4.users;" vertex="1" parent="1">
          <mxGeometry x="300" y="382" width="50" height="50" as="geometry" />
        </mxCell>
        <mxCell id="4ZfbymlsNvGFxBUoGwHC-31" value="" style="rounded=1;whiteSpace=wrap;html=1;fillColor=#1ba1e2;fontColor=#ffffff;strokeColor=#006EAF;" vertex="1" parent="1">
          <mxGeometry x="1630" y="90" width="120" height="110" as="geometry" />
        </mxCell>
        <mxCell id="4ZfbymlsNvGFxBUoGwHC-32" value="" style="rounded=1;whiteSpace=wrap;html=1;fillColor=#fff2cc;strokeColor=#d6b656;" vertex="1" parent="1">
          <mxGeometry x="1645" y="110" width="90" height="50" as="geometry" />
        </mxCell>
        <mxCell id="4ZfbymlsNvGFxBUoGwHC-33" value="Rule" style="text;html=1;align=center;verticalAlign=middle;whiteSpace=wrap;rounded=0;" vertex="1" parent="1">
          <mxGeometry x="1660" y="125" width="60" height="30" as="geometry" />
        </mxCell>
        <mxCell id="4ZfbymlsNvGFxBUoGwHC-34" value="Listener" style="text;html=1;align=center;verticalAlign=middle;whiteSpace=wrap;rounded=0;" vertex="1" parent="1">
          <mxGeometry x="1660" y="170" width="60" height="30" as="geometry" />
        </mxCell>
        <mxCell id="4ZfbymlsNvGFxBUoGwHC-38" value="" style="sketch=0;outlineConnect=0;fontColor=#232F3E;gradientColor=none;fillColor=#E7157B;strokeColor=none;dashed=0;verticalLabelPosition=bottom;verticalAlign=top;align=center;html=1;fontSize=12;fontStyle=0;aspect=fixed;pointerEvents=1;shape=mxgraph.aws4.template;" vertex="1" parent="1">
          <mxGeometry x="1084" y="240" width="65" height="78" as="geometry" />
        </mxCell>
        <mxCell id="4ZfbymlsNvGFxBUoGwHC-40" value="Private subnet" style="points=[[0,0],[0.25,0],[0.5,0],[0.75,0],[1,0],[1,0.25],[1,0.5],[1,0.75],[1,1],[0.75,1],[0.5,1],[0.25,1],[0,1],[0,0.75],[0,0.5],[0,0.25]];outlineConnect=0;gradientColor=none;html=1;whiteSpace=wrap;fontSize=12;fontStyle=0;container=1;pointerEvents=0;collapsible=0;recursiveResize=0;shape=mxgraph.aws4.group;grIcon=mxgraph.aws4.group_security_group;grStroke=0;strokeColor=#00A4A6;fillColor=#E6F6F7;verticalAlign=top;align=left;spacingLeft=30;fontColor=#147EBA;dashed=0;" vertex="1" parent="1">
          <mxGeometry x="897.75" y="320" width="130" height="20" as="geometry" />
        </mxCell>
        <mxCell id="4ZfbymlsNvGFxBUoGwHC-41" value="" style="sketch=0;outlineConnect=0;fontColor=#232F3E;gradientColor=none;fillColor=#ED7100;strokeColor=none;dashed=0;verticalLabelPosition=bottom;verticalAlign=top;align=center;html=1;fontSize=12;fontStyle=0;aspect=fixed;pointerEvents=1;shape=mxgraph.aws4.auto_scaling2;" vertex="1" parent="1">
          <mxGeometry x="919.25" y="342" width="20" height="20" as="geometry" />
        </mxCell>
        <mxCell id="4ZfbymlsNvGFxBUoGwHC-42" value="&lt;font style=&quot;font-size: 10px;&quot;&gt;Auto Scaling Group&amp;nbsp;&lt;/font&gt;" style="text;html=1;align=center;verticalAlign=middle;whiteSpace=wrap;rounded=0;" vertex="1" parent="1">
          <mxGeometry x="932.75" y="337" width="116.25" height="30" as="geometry" />
        </mxCell>
        <mxCell id="4ZfbymlsNvGFxBUoGwHC-43" value="&lt;font style=&quot;font-size: 10px;&quot;&gt;ec2 instances Auto Scaling&lt;/font&gt;" style="text;html=1;align=center;verticalAlign=middle;whiteSpace=wrap;rounded=0;" vertex="1" parent="1">
          <mxGeometry x="967.75" y="440" width="96.25" height="30" as="geometry" />
        </mxCell>
        <mxCell id="4ZfbymlsNvGFxBUoGwHC-44" style="edgeStyle=elbowEdgeStyle;rounded=0;orthogonalLoop=1;jettySize=auto;html=1;" edge="1" parent="1" source="4ZfbymlsNvGFxBUoGwHC-38" target="4ZfbymlsNvGFxBUoGwHC-42">
          <mxGeometry relative="1" as="geometry" />
        </mxCell>
        <mxCell id="4ZfbymlsNvGFxBUoGwHC-45" value="&lt;font style=&quot;font-size: 10px;&quot;&gt;Uses&lt;/font&gt;" style="text;html=1;align=center;verticalAlign=middle;whiteSpace=wrap;rounded=0;" vertex="1" parent="1">
          <mxGeometry x="1044" y="260" width="45.13" height="20" as="geometry" />
        </mxCell>
        <mxCell id="4ZfbymlsNvGFxBUoGwHC-46" value="&lt;font style=&quot;font-size: 10px;&quot;&gt;Launch Template&lt;/font&gt;" style="text;html=1;align=center;verticalAlign=middle;whiteSpace=wrap;rounded=0;" vertex="1" parent="1">
          <mxGeometry x="1158" y="255" width="45.13" height="20" as="geometry" />
        </mxCell>
        <mxCell id="4ZfbymlsNvGFxBUoGwHC-50" value="" style="rounded=0;whiteSpace=wrap;html=1;" vertex="1" parent="1">
          <mxGeometry x="580" y="352.5" width="60" height="110" as="geometry" />
        </mxCell>
        <mxCell id="4ZfbymlsNvGFxBUoGwHC-51" value="" style="rounded=0;whiteSpace=wrap;html=1;" vertex="1" parent="1">
          <mxGeometry x="888" y="362" width="50" height="110" as="geometry" />
        </mxCell>
        <mxCell id="4ZfbymlsNvGFxBUoGwHC-52" value="&lt;font style=&quot;font-size: 10px;&quot;&gt;SG&lt;/font&gt;" style="text;html=1;align=center;verticalAlign=middle;whiteSpace=wrap;rounded=0;" vertex="1" parent="1">
          <mxGeometry x="888" y="370" width="45.13" height="20" as="geometry" />
        </mxCell>
        <mxCell id="4ZfbymlsNvGFxBUoGwHC-53" value="&lt;span style=&quot;font-size: 10px;&quot;&gt;SG&lt;/span&gt;" style="text;html=1;align=center;verticalAlign=middle;whiteSpace=wrap;rounded=0;" vertex="1" parent="1">
          <mxGeometry x="590" y="352.5" width="45.13" height="20" as="geometry" />
        </mxCell>
        <mxCell id="4ZfbymlsNvGFxBUoGwHC-54" value="&lt;font style=&quot;font-size: 8px;&quot;&gt;Listening HTTP Traffic&lt;/font&gt;" style="text;html=1;align=center;verticalAlign=middle;whiteSpace=wrap;rounded=0;" vertex="1" parent="1">
          <mxGeometry x="582.56" y="432" width="52.57" height="20" as="geometry" />
        </mxCell>
        <mxCell id="4ZfbymlsNvGFxBUoGwHC-58" style="edgeStyle=orthogonalEdgeStyle;rounded=0;orthogonalLoop=1;jettySize=auto;html=1;entryX=0;entryY=0.5;entryDx=0;entryDy=0;" edge="1" parent="1" source="4ZfbymlsNvGFxBUoGwHC-56" target="4ZfbymlsNvGFxBUoGwHC-47">
          <mxGeometry relative="1" as="geometry" />
        </mxCell>
        <mxCell id="4ZfbymlsNvGFxBUoGwHC-56" value="" style="sketch=0;outlineConnect=0;fontColor=#232F3E;gradientColor=none;fillColor=#8C4FFF;strokeColor=default;dashed=0;verticalLabelPosition=bottom;verticalAlign=top;align=center;html=1;fontSize=12;fontStyle=0;aspect=fixed;pointerEvents=1;shape=mxgraph.aws4.internet_gateway;" vertex="1" parent="1">
          <mxGeometry x="446" y="386" width="42" height="42" as="geometry" />
        </mxCell>
        <mxCell id="4ZfbymlsNvGFxBUoGwHC-60" value="&lt;span style=&quot;font-size: 10px;&quot;&gt;Listening Traffic from ALB&lt;/span&gt;" style="text;html=1;align=center;verticalAlign=middle;whiteSpace=wrap;rounded=0;" vertex="1" parent="1">
          <mxGeometry x="888" y="437.5" width="45.13" height="20" as="geometry" />
        </mxCell>
        <mxCell id="4ZfbymlsNvGFxBUoGwHC-61" value="Public subnet" style="points=[[0,0],[0.25,0],[0.5,0],[0.75,0],[1,0],[1,0.25],[1,0.5],[1,0.75],[1,1],[0.75,1],[0.5,1],[0.25,1],[0,1],[0,0.75],[0,0.5],[0,0.25]];outlineConnect=0;gradientColor=none;html=1;whiteSpace=wrap;fontSize=12;fontStyle=0;container=1;pointerEvents=0;collapsible=0;recursiveResize=0;shape=mxgraph.aws4.group;grIcon=mxgraph.aws4.group_security_group;grStroke=0;strokeColor=#7AA116;fillColor=#F2F6E8;verticalAlign=top;align=left;spacingLeft=30;fontColor=#248814;dashed=0;" vertex="1" parent="1">
          <mxGeometry x="570" y="320" width="130" height="20" as="geometry" />
        </mxCell>
        <mxCell id="4ZfbymlsNvGFxBUoGwHC-12" value="" style="outlineConnect=0;dashed=0;verticalLabelPosition=bottom;verticalAlign=top;align=center;html=1;shape=mxgraph.aws3.classic_load_balancer;fillColor=#F58534;gradientColor=none;" vertex="1" parent="1">
          <mxGeometry x="590" y="387" width="40" height="40" as="geometry" />
        </mxCell>
        <mxCell id="4ZfbymlsNvGFxBUoGwHC-64" value="" style="sketch=0;points=[[0,0,0],[0.25,0,0],[0.5,0,0],[0.75,0,0],[1,0,0],[0,1,0],[0.25,1,0],[0.5,1,0],[0.75,1,0],[1,1,0],[0,0.25,0],[0,0.5,0],[0,0.75,0],[1,0.25,0],[1,0.5,0],[1,0.75,0]];outlineConnect=0;fontColor=#232F3E;fillColor=#ED7100;strokeColor=#ffffff;dashed=0;verticalLabelPosition=bottom;verticalAlign=top;align=center;html=1;fontSize=12;fontStyle=0;aspect=fixed;shape=mxgraph.aws4.resourceIcon;resIcon=mxgraph.aws4.ecr;" vertex="1" parent="1">
          <mxGeometry x="1164.07" y="352.5" width="33" height="33" as="geometry" />
        </mxCell>
        <mxCell id="4ZfbymlsNvGFxBUoGwHC-65" value="" style="image;sketch=0;aspect=fixed;html=1;points=[];align=center;fontSize=12;image=img/lib/mscae/Docker.svg;" vertex="1" parent="1">
          <mxGeometry x="1168.41" y="404.5" width="28.66" height="23.5" as="geometry" />
        </mxCell>
        <mxCell id="4ZfbymlsNvGFxBUoGwHC-67" style="edgeStyle=orthogonalEdgeStyle;rounded=0;orthogonalLoop=1;jettySize=auto;html=1;entryX=0.5;entryY=0;entryDx=0;entryDy=0;entryPerimeter=0;" edge="1" parent="1" source="4ZfbymlsNvGFxBUoGwHC-38" target="4ZfbymlsNvGFxBUoGwHC-64">
          <mxGeometry relative="1" as="geometry" />
        </mxCell>
        <mxCell id="4ZfbymlsNvGFxBUoGwHC-68" value="&lt;font style=&quot;font-size: 10px;&quot;&gt;Uses&lt;/font&gt;" style="text;html=1;align=center;verticalAlign=middle;whiteSpace=wrap;rounded=0;" vertex="1" parent="1">
          <mxGeometry x="1174" y="300" width="45.13" height="20" as="geometry" />
        </mxCell>
        <mxCell id="4ZfbymlsNvGFxBUoGwHC-69" value="&lt;font style=&quot;font-size: 10px;&quot;&gt;ECR&lt;/font&gt;" style="text;html=1;align=center;verticalAlign=middle;whiteSpace=wrap;rounded=0;" vertex="1" parent="1">
          <mxGeometry x="1190" y="359" width="45.13" height="20" as="geometry" />
        </mxCell>
        <mxCell id="4ZfbymlsNvGFxBUoGwHC-70" value="&lt;font style=&quot;font-size: 10px;&quot;&gt;Images&lt;/font&gt;" style="text;html=1;align=center;verticalAlign=middle;whiteSpace=wrap;rounded=0;" vertex="1" parent="1">
          <mxGeometry x="1195" y="407" width="45.13" height="20" as="geometry" />
        </mxCell>
      </root>
    </mxGraphModel>
  </diagram>
</mxfile>
